<svg xmlns="http://www.w3.org/2000/svg" viewBox="0 0 293.48 266.35"><defs><style>.cls-1{fill:#010202;}.cls-2{fill:#fff;}</style></defs><g id="Livello_2" data-name="Livello 2"><g id="Livello_1-2" data-name="Livello 1"><path class="cls-1" d="M132.86,263.35a22.84,22.84,0,0,1,0-45.68h80.89a30.95,30.95,0,0,0,0-61.9l-80.89,0a22.84,22.84,0,0,1,0-45.68h81a76.64,76.64,0,0,1,0,153.28Z"/><path class="cls-2" d="M213.84,113.07a73.64,73.64,0,0,1,0,147.28h-81a19.84,19.84,0,0,1,0-39.68h80.89a33.95,33.95,0,0,0,0-67.9l-80.89,0a19.84,19.84,0,0,1,0-39.68h81m0-6h-81a25.84,25.84,0,0,0,0,51.68l80.89,0a28,28,0,0,1,0,55.9H132.86a25.84,25.84,0,0,0,0,51.68h81a79.64,79.64,0,0,0,0-159.28Z"/><path class="cls-1" d="M25.84,263A22.87,22.87,0,0,1,3,240.12V25.84A22.87,22.87,0,0,1,25.84,3h241.8a22.84,22.84,0,1,1,0,45.68l-219-.45V240.12A22.87,22.87,0,0,1,25.84,263Z"/><path class="cls-2" d="M267.64,6a19.84,19.84,0,1,1,0,39.68l-222-.46v194.9a19.84,19.84,0,0,1-39.68,0V25.84A19.82,19.82,0,0,1,25.84,6h241.8m0-6H25.84A25.87,25.87,0,0,0,0,25.84V240.12a25.84,25.84,0,0,0,51.68,0V51.23l216,.45a25.84,25.84,0,1,0,0-51.68Z"/></g></g></svg>