<svg xmlns="http://www.w3.org/2000/svg" viewBox="0 0 200 200"><defs><style>.cls-1{fill:none;}</style></defs><g id="Livello_2" data-name="Livello 2"><g id="icons"><rect class="cls-1" width="200" height="200"/><path d="M197.62,79v1.33a3.8,3.8,0,0,1-1.91,3.29l-93.83,53.57a3.77,3.77,0,0,1-3.76,0L4.29,83.66a3.8,3.8,0,0,1-1.91-3.29V75.23a10,10,0,0,1,10-10H183.8A13.82,13.82,0,0,1,197.62,79Z"/><path d="M102.89,150.05,197.62,96v92a10,10,0,0,1-10,10H12.42a10,10,0,0,1-10-10V96l94.73,54.07a5.81,5.81,0,0,0,5.78,0Z"/></g></g></svg>