<svg xmlns="http://www.w3.org/2000/svg" viewBox="0 0 200 200"><defs><style>.cls-1{fill:none;}</style></defs><g id="Livello_2" data-name="Livello 2"><g id="icons"><rect class="cls-1" width="200" height="200"/><path id="phone" d="M61.67,5.73l8.06-3.66A8,8,0,0,1,80.25,6.23L96.19,41.29a9.19,9.19,0,0,1-4.35,12.23l-6.18,2.81c-7.91,3.59-11.3,13.14-7.58,21.33l26.17,57.59c3.72,8.19,13.15,11.91,21,8.32l6.18-2.81a9.19,9.19,0,0,1,12.08,4.77l15.94,35.08a8,8,0,0,1-3.78,10.64l-8.08,3.67c-24.81,11.27-57.54-7.36-87.22-72.67l-1.37-3C29.37,53.91,36.86,17,61.67,5.73Z"/></g></g></svg>